<?xml version="1.0" encoding="utf-8"?>
<!-- Generated by IcoMoon.io -->
<svg version="1.1" xmlns="http://www.w3.org/2000/svg" xmlns:xlink="http://www.w3.org/1999/xlink" width="752" height="32" viewBox="0 0 752 32">
<svg id="icon-spinner11" width="32" height="32" viewBox="0 0 32 32" x="0" y="0">
<path d="M32 12h-12l4.485-4.485c-2.267-2.266-5.28-3.515-8.485-3.515s-6.219 1.248-8.485 3.515c-2.266 2.267-3.515 5.28-3.515 8.485s1.248 6.219 3.515 8.485c2.267 2.266 5.28 3.515 8.485 3.515s6.219-1.248 8.485-3.515c0.189-0.189 0.371-0.384 0.546-0.583l3.010 2.634c-2.933 3.349-7.239 5.464-12.041 5.464-8.837 0-16-7.163-16-16s7.163-16 16-16c4.418 0 8.418 1.791 11.313 4.687l4.687-4.687v12z"></path>
</svg>
<svg id="icon-cancel-circle" width="32" height="32" viewBox="0 0 32 32" x="48" y="0">
<path d="M16 0c-8.837 0-16 7.163-16 16s7.163 16 16 16 16-7.163 16-16-7.163-16-16-16zM16 29c-7.18 0-13-5.82-13-13s5.82-13 13-13 13 5.82 13 13-5.82 13-13 13z"></path>
<path d="M21 8l-5 5-5-5-3 3 5 5-5 5 3 3 5-5 5 5 3-3-5-5 5-5z"></path>
</svg>
<svg id="icon-github" width="32" height="32" viewBox="0 0 32 32" x="96" y="0">
<path d="M16 0.395c-8.836 0-16 7.163-16 16 0 7.069 4.585 13.067 10.942 15.182 0.8 0.148 1.094-0.347 1.094-0.77 0-0.381-0.015-1.642-0.022-2.979-4.452 0.968-5.391-1.888-5.391-1.888-0.728-1.849-1.776-2.341-1.776-2.341-1.452-0.993 0.11-0.973 0.11-0.973 1.606 0.113 2.452 1.649 2.452 1.649 1.427 2.446 3.743 1.739 4.656 1.33 0.143-1.034 0.558-1.74 1.016-2.14-3.554-0.404-7.29-1.777-7.29-7.907 0-1.747 0.625-3.174 1.649-4.295-0.166-0.403-0.714-2.030 0.155-4.234 0 0 1.344-0.43 4.401 1.64 1.276-0.355 2.645-0.532 4.005-0.539 1.359 0.006 2.729 0.184 4.008 0.539 3.054-2.070 4.395-1.64 4.395-1.64 0.871 2.204 0.323 3.831 0.157 4.234 1.026 1.12 1.647 2.548 1.647 4.295 0 6.145-3.743 7.498-7.306 7.895 0.574 0.497 1.085 1.47 1.085 2.963 0 2.141-0.019 3.864-0.019 4.391 0 0.426 0.288 0.925 1.099 0.768 6.354-2.118 10.933-8.113 10.933-15.18 0-8.837-7.164-16-16-16z"></path>
</svg>
</svg>
